<svg width="32" height="32" viewBox="0 0 32 32" fill="none" xmlns="http://www.w3.org/2000/svg">
<path d="M6.59766 6.6665H9.2368V9.33317H6.59766V6.6665ZM11.8759 11.9998H9.2368V9.33317H11.8759V11.9998ZM14.5151 14.6665H11.8759V11.9998H14.5151V14.6665ZM17.1542 14.6665H14.5151V17.3332H11.8759V19.9998H9.2368V22.6665H6.59766V25.3332H9.2368V22.6665H11.8759V19.9998H14.5151V17.3332H17.1542V19.9998H19.7934V22.6665H22.4325V25.3332H25.0717V22.6665H22.4325V19.9998H19.7934V17.3332H17.1542V14.6665ZM19.7934 11.9998V14.6665H17.1542V11.9998H19.7934ZM22.4325 9.33317V11.9998H19.7934V9.33317H22.4325ZM22.4325 9.33317V6.6665H25.0717V9.33317H22.4325Z" fill="#222222"/>
</svg>
