<svg width="38" height="44" viewBox="0 0 38 44" fill="none" xmlns="http://www.w3.org/2000/svg">
<path d="M0 0H5.42857V6.25035H0V0ZM10.8571 12.5007H5.42857V6.25035H10.8571V12.5007ZM16.2857 18.751H10.8571V12.5007H16.2857V18.751ZM21.7143 18.751H16.2857V25.0014H10.8571V31.2517H5.42857V37.5021H0V43.7524H5.42857V37.5021H10.8571V31.2517H16.2857V25.0014H21.7143V31.2517H27.1429V37.5021H32.5714V43.7524H38V37.5021H32.5714V31.2517H27.1429V25.0014H21.7143V18.751ZM27.1429 12.5007V18.751H21.7143V12.5007H27.1429ZM32.5714 6.25035V12.5007H27.1429V6.25035H32.5714ZM32.5714 6.25035V0H38V6.25035H32.5714Z" fill="#222222"/>
</svg>
