<?xml version="1.0" encoding="utf-8"?>
<!-- Generator: Adobe Illustrator 26.3.1, SVG Export Plug-In . SVG Version: 6.00 Build 0)  -->
<svg version="1.1" id="Layer_1" xmlns="http://www.w3.org/2000/svg" xmlns:xlink="http://www.w3.org/1999/xlink" x="0px" y="0px"
	 viewBox="0 0 68.3 64" enable-background="new 0 0 68.3 64" xml:space="preserve">
<path d="M37,54c-10.4,0-19.1-7.3-21.4-17H43V26H15.8c2.6-9.2,11.1-16,21.2-16c9.8,0,18.1,6.4,20.9,15.2h10.3C65.2,10.8,52.3,0,37,0
	C21.4,0,8.4,11.2,5.6,26H0v11h5.4C7.8,52.3,21.1,64,37,64c15,0,27.5-10.3,31-24.2H57.6C54.4,48.1,46.4,54,37,54z"/>
</svg>
