<svg width="96" height="68" viewBox="0 0 96 68" fill="none" xmlns="http://www.w3.org/2000/svg">
<path d="M83.3684 40.5511C80.0303 40.5511 79.1579 41.1953 79.1579 43.6619C79.1579 46.1043 78.1642 46.8583 74.5263 47.1765C70.8884 47.4935 69.7802 48.3344 69.3625 51.095C68.9852 53.5783 67.8737 54.6096 65.573 54.6096C64.3871 54.6096 63.6228 54.4451 63.1351 53.803C62.4614 52.9158 62.3158 51.1169 62.3158 47.5804L62.3158 44.3853L56.3031 44.3853L35.2758 44.3853L4.75675 44.3853L4.75675 35.4555L4.75675 26.393L35.2758 26.393L56.3031 26.393L62.3158 26.393L62.3158 21.3485C62.3158 17.9894 62.4838 16.3624 63.2772 15.6043C63.7842 15.1198 64.5468 14.9902 65.6842 14.9902C68.1549 14.9902 69.0526 15.8426 69.0526 18.1853C69.0526 20.8832 69.8391 21.3804 74.1052 21.3804C78.3713 21.3804 79.1579 21.8776 79.1579 24.5755C79.1579 27.1316 80 27.7707 83.3684 27.7707C87.2977 27.7707 87.5789 28.1962 87.5789 34.1609C87.5789 40.1255 87.2977 40.5511 83.3684 40.5511Z" fill="#B0F056"/>
<path d="M62.3158 47.5804L62.3158 44.3853L56.3031 44.3853L56.3031 61.78C58.0518 61.4967 60.759 59.5047 63.1351 53.803C62.4614 52.9158 62.3158 51.1169 62.3158 47.5804Z" fill="#B0F056"/>
<path fill-rule="evenodd" clip-rule="evenodd" d="M91.7895 27.7707C88.4211 27.7707 87.5789 27.1316 87.5789 24.5755C87.5789 22.0194 86.7368 21.3804 83.3684 21.3804C80 21.3804 79.1579 20.7414 79.1579 18.1853C79.1579 15.6522 78.3091 14.9902 75.0585 14.9902C71.84 14.9902 70.8463 14.2361 70.427 11.4755C70.0093 8.71495 68.901 7.87402 65.2631 7.55706C61.6252 7.23883 60.6315 6.48477 60.6315 4.04242C60.6315 1.57579 59.7591 0.931639 56.421 0.931639C52.2812 0.931639 52.2105 1.10162 52.2105 11.156L52.2105 21.3804L26.1052 21.3804L-9.01126e-07 21.3804L-1.49249e-06 34.7999L-2.08386e-06 48.2194L26.1052 48.2194L52.2105 48.2194L52.2105 57.8048C52.2105 67.1038 52.3334 67.3901 56.3031 67.3901C59.2673 67.3901 60.5457 66.5964 60.9347 64.5145C61.3204 62.4556 62.789 61.5239 66.1052 61.2351C69.7431 60.9168 70.7368 60.1628 70.7368 57.7204C70.7368 55.2538 71.6092 54.6096 74.9473 54.6096C78.3158 54.6096 79.1579 53.9706 79.1579 51.4145C79.1579 48.8584 80 48.2194 83.3684 48.2194C86.9238 48.2194 87.5789 47.6226 87.5789 44.3853C87.5789 41.148 88.2341 40.5511 91.7895 40.5511C95.7187 40.5511 96 40.1255 96 34.1609C96 28.1962 95.7187 27.7707 91.7895 27.7707ZM83.3684 40.5511C80.0303 40.5511 79.1579 41.1953 79.1579 43.6619C79.1579 46.1043 78.1642 46.8583 74.5263 47.1765C70.8884 47.4935 69.7802 48.3344 69.3625 51.095C68.9852 53.5783 67.8737 54.6096 65.573 54.6096C64.3871 54.6096 63.6228 54.4451 63.1351 53.803C60.759 59.5047 58.0518 61.4967 56.3031 61.78L56.3031 44.3853L35.2758 44.3853L4.75675 44.3853L4.75675 35.4555L4.75675 26.393L35.2758 26.393L56.3031 26.393L56.3031 6.11022C58.2427 6.39792 62.353 8.69952 63.2772 15.6043C63.7842 15.1198 64.5468 14.9902 65.6842 14.9902C68.1549 14.9902 69.0526 15.8426 69.0526 18.1853C69.0526 20.8832 69.8391 21.3804 74.1052 21.3804C78.3713 21.3804 79.1579 21.8776 79.1579 24.5755C79.1579 27.1316 80 27.7707 83.3684 27.7707C87.2977 27.7707 87.5789 28.1962 87.5789 34.1609C87.5789 40.1255 87.2977 40.5511 83.3684 40.5511Z" fill="black"/>
<path d="M62.3158 26.393L62.3158 21.3485C62.3158 17.9894 62.4838 16.3624 63.2772 15.6043C62.353 8.69952 58.2427 6.39792 56.3031 6.11022L56.3031 26.393L62.3158 26.393Z" fill="#B0F056"/>
</svg>
