<svg width="32" height="42" viewBox="0 0 32 42" fill="none" xmlns="http://www.w3.org/2000/svg">
<path d="M19.991 1.13408C20.0651 0.586787 19.6814 0.0830828 19.1341 0.00903004C18.5869 -0.0650226 18.0831 0.318618 18.0091 0.865916L19.991 1.13408ZM13.8001 41C13.8001 41.5523 14.2478 42 14.8001 42C15.3523 42 15.8001 41.5523 15.8001 41H13.8001ZM1.12716 19.7005C0.579363 19.6302 0.0783492 20.0174 0.00811833 20.5652C-0.0621126 21.113 0.325035 21.614 0.872836 21.6842L1.12716 19.7005ZM31 22.9231C31.5523 22.9231 32 22.4754 32 21.9231C32 21.3708 31.5523 20.9231 31 20.9231V22.9231ZM18.0091 0.865916C16.2468 13.8902 13.8001 27.6547 13.8001 41H15.8001C15.8001 27.8317 18.2126 14.2778 19.991 1.13408L18.0091 0.865916ZM0.872836 21.6842C10.9538 22.9767 20.9664 22.9231 31 22.9231V20.9231C20.9354 20.9231 11.0574 20.9736 1.12716 19.7005L0.872836 21.6842Z" fill="black"/>
</svg>
