<svg width="19" height="18" viewBox="0 0 19 18" fill="none" xmlns="http://www.w3.org/2000/svg">
<path fill-rule="evenodd" clip-rule="evenodd" d="M18 8.99997L17.9987 8.99998L17.9949 9.00004L17.9885 9.0002L17.9796 9.00051L17.9682 9.00103L17.9542 9.0018L17.9377 9.00288L17.9187 9.00431L17.8972 9.00614L17.8732 9.00842L17.8468 9.01121L17.8179 9.01455L17.7866 9.01849L17.7529 9.02306L17.7169 9.02833L17.6784 9.03434L17.6377 9.04113L17.5946 9.04874L17.5493 9.05723L17.5018 9.06662L17.452 9.07697L17.4001 9.08831L17.346 9.10068L17.2899 9.11413L17.2317 9.12869L17.1714 9.14439L17.1092 9.16127L17.0451 9.17937L16.9791 9.19872L16.9112 9.21934L16.8415 9.24127L16.7701 9.26455L16.697 9.28919L16.6222 9.31522L16.5458 9.34267L16.4679 9.37156L16.3885 9.40191L16.3076 9.43374L16.2254 9.46708L16.1418 9.50193L16.0569 9.53832L15.9708 9.57625L15.8835 9.61575L15.7952 9.65682L15.7057 9.69946L15.6153 9.7437L15.524 9.78953L15.4317 9.83696L15.3387 9.886L15.2449 9.93663L15.1504 9.98887L15.0553 10.0427L14.9596 10.0981L14.8634 10.1552L14.7667 10.2138L14.6696 10.2739L14.5723 10.3357L14.4746 10.399L14.3767 10.4638L14.2787 10.5301L14.1806 10.598L14.0824 10.6673L13.9843 10.7381L13.8863 10.8104L13.7884 10.884L13.6907 10.959L13.5933 11.0354L13.4961 11.1132L13.3994 11.1922L13.3031 11.2725L13.2072 11.3541L13.1119 11.4369L13.0172 11.5208L12.9231 11.6059L12.8296 11.692L12.737 11.7792L12.6451 11.8675L12.554 11.9566L12.4638 12.0468L12.3745 12.1378L12.2862 12.2296L12.1989 12.3222L12.1127 12.4156L12.0275 12.5096L11.9435 12.6043L11.8607 12.6996L11.779 12.7954L11.6986 12.8917L11.6194 12.9884L11.5416 13.0855L11.4651 13.1829L11.3899 13.2806L11.3162 13.3785L11.2438 13.4765L11.1729 13.5746L11.1035 13.6728L11.0355 13.7709L10.969 13.8689L10.9041 13.9668L10.8407 14.0645L10.7788 14.1619L10.7185 14.259L10.6598 14.3557L10.6026 14.4519L10.5471 14.5477L10.4931 14.6429L10.4407 14.7374L10.39 14.8313L10.3408 14.9244L10.2933 15.0167L10.2473 15.1081L10.2029 15.1986L10.1602 15.2881L10.119 15.3765L10.0794 15.4639L10.0413 15.5501L10.0048 15.6351L9.96981 15.7188L9.93636 15.8011L9.9044 15.8821L9.87394 15.9616L9.84493 16.0397L9.81737 16.1162L9.79123 16.1911L9.76648 16.2643L9.74309 16.3359L9.72105 16.4057L9.70033 16.4737L9.68088 16.5399L9.66268 16.6042L9.6457 16.6665L9.62991 16.7269L9.61526 16.7853L9.60173 16.8416L9.58927 16.8959L9.57785 16.948L9.56742 16.9979L9.55795 17.0456L9.5494 17.0911L9.54172 17.1343L9.53487 17.1753L9.5288 17.2139L9.52347 17.2502L9.51884 17.284L9.51486 17.3155L9.51147 17.3446L9.50864 17.3712L9.50632 17.3954L9.50445 17.4171L9.50299 17.4363L9.50189 17.453L9.5011 17.4672L9.50056 17.4788L9.50023 17.4879L9.50006 17.4945L9.49999 17.4985L9.49998 17.5L9.49998 17.4989L9.49992 17.4953L9.49977 17.4891L9.49947 17.4804L9.49897 17.4692L9.49822 17.4554L9.49717 17.4391L9.49577 17.4203L9.49397 17.399L9.49173 17.3752L9.48898 17.349L9.48569 17.3203L9.4818 17.2892L9.47728 17.2557L9.47206 17.2198L9.46612 17.1816L9.45939 17.141L9.45185 17.0982L9.44343 17.053L9.43411 17.0056L9.42384 16.9561L9.41258 16.9043L9.40029 16.8504L9.38693 16.7944L9.37247 16.7364L9.35686 16.6763L9.34007 16.6143L9.32207 16.5503L9.30282 16.4844L9.2823 16.4167L9.26047 16.3471L9.23731 16.2759L9.21278 16.2029L9.18686 16.1282L9.15952 16.052L9.13075 15.9742L9.10052 15.8949L9.0688 15.8141L9.03559 15.732L9.00086 15.6485L8.96459 15.5637L8.92678 15.4777L8.88741 15.3905L8.84647 15.3022L8.80394 15.2129L8.75983 15.1226L8.71413 15.0313L8.66682 14.9391L8.61792 14.8461L8.56741 14.7524L8.5153 14.658L8.46159 14.5629L8.40629 14.4672L8.34939 14.371L8.29091 14.2744L8.23086 14.1774L8.16925 14.08L8.10608 13.9824L8.04137 13.8845L7.97515 13.7865L7.90742 13.6884L7.83821 13.5903L7.76753 13.4921L7.69541 13.3941L7.62187 13.2962L7.54694 13.1985L7.47065 13.101L7.39301 13.0039L7.31407 12.9071L7.23385 12.8107L7.15239 12.7148L7.06973 12.6195L6.98589 12.5247L6.90091 12.4305L6.81484 12.337L6.72771 12.2443L6.63956 12.1523L6.55045 12.0612L6.4604 11.9709L6.36947 11.8816L6.2777 11.7932L6.18514 11.7058L6.09184 11.6195L5.99784 11.5343L5.9032 11.4502L5.80797 11.3672L5.7122 11.2855L5.61595 11.2049L5.51926 11.1257L5.42219 11.0477L5.3248 10.9711L5.22715 10.8959L5.12928 10.822L5.03127 10.7495L4.93316 10.6785L4.83501 10.6089L4.73689 10.5408L4.63884 10.4743L4.54094 10.4092L4.44325 10.3457L4.34581 10.2837L4.2487 10.2232L4.15196 10.1644L4.05567 10.1071L3.95989 10.0514L3.86467 9.99734L3.77007 9.94485L3.67616 9.89396L3.58299 9.84467L3.49063 9.79698L3.39914 9.75089L3.30857 9.7064L3.21898 9.6635L3.13044 9.62218L3.04299 9.58244L2.9567 9.54425L2.87163 9.50762L2.78783 9.47252L2.70535 9.43895L2.62426 9.40688L2.54461 9.37629L2.46644 9.34717L2.38981 9.3195L2.31478 9.29324L2.2414 9.26838L2.1697 9.24489L2.09975 9.22274L2.0316 9.20191L1.96527 9.18237L1.90083 9.16407L1.83832 9.147L1.77777 9.13111L1.71924 9.11637L1.66275 9.10275L1.60836 9.09021L1.55609 9.07871L1.50598 9.0682L1.45808 9.05866L1.4124 9.05003L1.36899 9.04228L1.32787 9.03537L1.28907 9.02924L1.25261 9.02386L1.21854 9.01917L1.18686 9.01514L1.15759 9.01171L1.13077 9.00883L1.10641 9.00647L1.08452 9.00457L1.06512 9.00308L1.04823 9.00195L1.03385 9.00113L1.022 9.00058L1.01269 9.00024L1.00591 9.00005L1.00168 8.99998L1 8.99997L1.00087 8.99996L1.00429 8.99992L1.01025 8.99977L1.01876 8.99949L1.0298 8.999L1.04338 8.99828L1.05947 8.99725L1.07807 8.99588L1.09917 8.99412L1.12274 8.99191L1.14878 8.9892L1.17727 8.98596L1.20818 8.98212L1.2415 8.97764L1.2772 8.97249L1.31525 8.9666L1.35564 8.95994L1.39832 8.95246L1.44328 8.94412L1.49048 8.93487L1.53989 8.92468L1.59148 8.9135L1.6452 8.90129L1.70102 8.88802L1.75891 8.87364L1.81882 8.85813L1.88071 8.84143L1.94454 8.82353L2.01027 8.80439L2.07785 8.78397L2.14723 8.76224L2.21837 8.73918L2.29123 8.71476L2.36574 8.68896L2.44186 8.66173L2.51954 8.63308L2.59873 8.60296L2.67937 8.57136L2.76141 8.53827L2.8448 8.50366L2.92947 8.46752L3.01538 8.42983L3.10246 8.39058L3.19066 8.34977L3.27992 8.30737L3.37019 8.26339L3.46139 8.21781L3.55348 8.17063L3.6464 8.12185L3.74008 8.07147L3.83447 8.01949L3.92949 7.96591L4.02511 7.91073L4.12124 7.85396L4.21784 7.79561L4.31484 7.73568L4.41218 7.67419L4.5098 7.61114L4.60764 7.54656L4.70565 7.48046L4.80375 7.41285L4.9019 7.34375L5.00002 7.27319L5.09808 7.20118L5.196 7.12776L5.29373 7.05294L5.3912 6.97675L5.48838 6.89922L5.5852 6.82038L5.68159 6.74026L5.77752 6.6589L5.87293 6.57633L5.96777 6.49258L6.06197 6.40769L6.1555 6.32171L6.2483 6.23466L6.34033 6.1466L6.43153 6.05755L6.52186 5.96758L6.61128 5.87672L6.69974 5.78501L6.7872 5.69251L6.87361 5.59927L6.95894 5.50533L7.04315 5.41074L7.12619 5.31555L7.20804 5.21982L7.28866 5.1236L7.36801 5.02695L7.44606 4.92991L7.52279 4.83254L7.59816 4.73491L7.67214 4.63706L7.74471 4.53905L7.81585 4.44094L7.88553 4.3428L7.95374 4.24467L8.02044 4.14662L8.08563 4.0487L8.14929 3.95099L8.2114 3.85353L8.27196 3.75638L8.33094 3.65962L8.38834 3.56329L8.44415 3.46746L8.49837 3.3722L8.55099 3.27755L8.60201 3.18358L8.65142 3.09035L8.69923 2.99793L8.74545 2.90636L8.79007 2.81571L8.83309 2.72604L8.87454 2.63741L8.91441 2.54988L8.95272 2.4635L8.98947 2.37832L9.02469 2.29442L9.05838 2.21184L9.09058 2.13063L9.12128 2.05086L9.15051 1.97257L9.1783 1.89582L9.20467 1.82066L9.22964 1.74714L9.25324 1.67531L9.27549 1.60522L9.29643 1.53692L9.31608 1.47045L9.33447 1.40586L9.35164 1.34319L9.36762 1.28248L9.38245 1.22378L9.39615 1.16714L9.40878 1.11257L9.42037 1.06013L9.43095 1.00985L9.44057 0.961771L9.44926 0.915916L9.45708 0.872321L9.46406 0.831016L9.47025 0.79203L9.47569 0.755391L9.48043 0.721122L9.48452 0.68925L9.48799 0.659795L9.49091 0.632778L9.49331 0.608218L9.49525 0.586132L9.49677 0.566536L9.49792 0.549443L9.49876 0.534865L9.49934 0.522813L9.4997 0.513294L9.49989 0.506317L9.49997 0.501884L9.49998 0.5L9.49999 0.500666L9.50003 0.503881L9.50016 0.509643L9.50044 0.517948L9.5009 0.528791L9.50161 0.542163L9.50261 0.558056L9.50395 0.576457L9.50568 0.597356L9.50785 0.620735L9.51052 0.646581L9.51372 0.674873L9.5175 0.705593L9.52192 0.73872L9.52703 0.77423L9.53285 0.812098L9.53945 0.852298L9.54686 0.894803L9.55513 0.939582L9.56431 0.986605L9.57442 1.03584L9.58552 1.08725L9.59765 1.1408L9.61083 1.19646L9.62512 1.25418L9.64055 1.31393L9.65714 1.37567L9.67495 1.43935L9.69399 1.50493L9.71431 1.57236L9.73593 1.6416L9.75888 1.71261L9.78319 1.78533L9.80889 1.85971L9.836 1.93571L9.86454 2.01327L9.89454 2.09234L9.92602 2.17286L9.95899 2.25479L9.99348 2.33807L10.0295 2.42265L10.0671 2.50846L10.1062 2.59545L10.1469 2.68356L10.1891 2.77274L10.233 2.86293L10.2785 2.95406L10.3255 3.04609L10.3742 3.13894L10.4244 3.23256L10.4763 3.32689L10.5297 3.42187L10.5848 3.51744L10.6414 3.61354L10.6996 3.7101L10.7594 3.80707L10.8208 3.90439L10.8837 4.00199L10.9482 4.09981L11.0142 4.19781L11.0817 4.29591L11.1506 4.39405L11.2211 4.49218L11.293 4.59024L11.3663 4.68818L11.441 4.78592L11.5171 4.88342L11.5945 4.98063L11.6732 5.07747L11.7533 5.17391L11.8345 5.26988L11.917 5.36533L12.0007 5.46021L12.0854 5.55447L12.1714 5.64805L12.2583 5.74091L12.3463 5.833L12.4353 5.92427L12.5252 6.01468L12.616 6.10417L12.7076 6.19271L12.8 6.28025L12.8932 6.36674L12.9871 6.45216L13.0816 6.53646L13.1768 6.6196L13.2725 6.70154L13.3687 6.78226L13.4653 6.86171L13.5623 6.93987L13.6596 7.0167L13.7572 7.09218L13.8551 7.16628L13.9531 7.23897L14.0512 7.31022L14.1493 7.38002L14.2475 7.44834L14.3455 7.51517L14.4434 7.58048L14.5412 7.64426L14.6387 7.70649L14.7358 7.76717L14.8326 7.82628L14.929 7.8838L15.0249 7.93974L15.1202 7.99409L15.2149 8.04684L15.3089 8.09798L15.4022 8.14753L15.4947 8.19547L15.5863 8.24181L15.677 8.28655L15.7668 8.32971L15.8555 8.37128L15.9431 8.41127L16.0296 8.4497L16.1149 8.48658L16.1989 8.52192L16.2816 8.55574L16.3629 8.58805L16.4428 8.61887L16.5212 8.64822L16.5981 8.67613L16.6733 8.70261L16.747 8.72769L16.819 8.75139L16.8892 8.77375L16.9576 8.79479L17.0243 8.81454L17.089 8.83303L17.1518 8.8503L17.2127 8.86637L17.2715 8.88129L17.3284 8.89509L17.3831 8.9078L17.4357 8.91947L17.4862 8.93013L17.5344 8.93982L17.5804 8.94859L17.6242 8.95647L17.6657 8.96352L17.7049 8.96977L17.7417 8.97527L17.7762 8.98006L17.8082 8.9842L17.8379 8.98772L17.8651 8.99068L17.8898 8.99312L17.9121 8.99509L17.9319 8.99664L17.9492 8.99783L17.964 8.99869L17.9762 8.99928L17.986 8.99966L17.9931 8.99986L17.9978 8.99995L18 8.99997Z" fill="#FBBF13" stroke="#222222"/>
</svg>
