<svg width="34" height="33" viewBox="0 0 34 33" fill="none" xmlns="http://www.w3.org/2000/svg">
<g clip-path="url(#clip0_2115_7565)">
<path d="M32.5499 20.0053C34.9396 9.26657 25.5319 -0.48905 14.4838 1.3837C8.486 -2.33842 0.5 1.8677 0.5 9.00395C0.5 10.6636 0.957875 12.2173 1.754 13.5566C-0.466625 24.3201 9.01813 33.9354 20.0566 31.9348C27.8598 36.0612 36.4824 27.8318 32.5499 20.0053ZM22.0476 26.4816C19.1491 27.6737 14.3793 27.6806 11.4931 26.1694C7.37775 23.9749 6.64625 19.0346 10.1965 19.0346C12.8723 19.0346 12.0253 22.1544 14.7271 23.4263C15.9674 23.9997 18.6335 24.0588 20.1831 23.0138C21.7135 21.9894 21.5733 20.3779 20.7414 19.6079C18.5373 17.5729 12.2301 18.3814 9.34675 14.8188C8.09413 13.2733 7.85763 10.5467 9.39763 8.56945C12.0816 5.11545 19.9576 4.90507 23.3443 7.51345C26.471 9.93344 25.6268 13.1454 23.1036 13.1454C20.069 13.1454 21.664 9.17445 16.7649 9.17445C13.2133 9.17445 11.8163 11.7003 14.3174 12.9296C17.7081 14.6139 26.3486 14.0516 26.3486 20.6337C26.3418 23.3727 24.6629 25.4146 22.0476 26.4816Z" fill="#19141B"/>
</g>
<defs>
<clipPath id="clip0_2115_7565">
<rect width="33" height="33" fill="white" transform="translate(0.5)"/>
</clipPath>
</defs>
</svg>
