<svg width="36" height="35" viewBox="0 0 36 35" fill="none" xmlns="http://www.w3.org/2000/svg">
<g clip-path="url(#clip0_2115_7568)">
<path d="M18 35C27.6673 35 35.5 27.1673 35.5 17.5C35.5 7.83271 27.6673 0 18 0C8.33271 0 0.5 7.83271 0.5 17.5C0.5 27.1673 8.33271 35 18 35ZM8.50771 17.1208L25.3806 10.6152C26.1638 10.3323 26.8477 10.8063 26.594 11.9904L26.5954 11.989L23.7225 25.5238C23.5096 26.4833 22.9394 26.7167 22.1417 26.2646L17.7667 23.0402L15.6565 25.0731C15.4231 25.3065 15.2263 25.5033 14.7742 25.5033L15.0848 21.051L23.1931 13.7258C23.546 13.4152 23.1144 13.2402 22.6492 13.5494L12.629 19.8581L8.30938 18.5106C7.37167 18.2131 7.35125 17.5729 8.50771 17.1208Z" fill="#19141B"/>
</g>
<defs>
<clipPath id="clip0_2115_7568">
<rect width="35" height="35" fill="white" transform="translate(0.5)"/>
</clipPath>
</defs>
</svg>
