<svg width="36" height="35" viewBox="0 0 36 35" fill="none" xmlns="http://www.w3.org/2000/svg">
<g clip-path="url(#clip0_2115_7555)">
<path d="M34.2672 20.2606C35.3114 11.4712 33.7656 5.92227 30.9772 3.41248L30.9787 3.41102C26.4783 -0.875026 11.2795 -1.5094 5.89534 3.60352C3.47742 6.10456 2.62576 9.77519 2.53242 14.3194C2.43909 18.865 2.32826 27.3802 10.263 29.6902H10.2703L10.263 33.2179C10.263 33.2179 10.2091 34.6471 11.122 34.9344C12.1662 35.2727 12.6387 34.6092 15.8864 30.73C21.3172 31.201 25.4881 30.1219 25.962 29.9644C27.0587 29.5969 33.2639 28.7758 34.2672 20.2606ZM16.4216 28.2479C16.4216 28.2479 12.9843 32.534 11.9153 33.6467C11.5653 34.0083 11.1818 33.9748 11.1876 33.2573C11.1876 32.7862 11.2139 27.4006 11.2139 27.4006C4.48659 25.4727 4.88326 18.2219 4.95617 14.4287C5.02909 10.6341 5.72326 7.52644 7.77076 5.43373C12.4943 1.00477 25.8191 1.99498 29.2141 5.18581C33.3645 8.86519 31.8872 19.2602 31.896 19.6146C31.0428 26.7225 26.0145 27.1731 25.0899 27.4808C24.6947 27.6121 21.027 28.5556 16.4216 28.2479Z" fill="#19141B"/>
<path d="M18.3234 6.26636C17.762 6.26636 17.762 7.14136 18.3234 7.14865C22.6795 7.18219 26.267 10.2184 26.3064 15.7878C26.3064 16.3755 27.1668 16.3682 27.1595 15.7805H27.158C27.1114 9.77948 23.1943 6.2999 18.3234 6.26636Z" fill="#19141B"/>
<path d="M24.0535 14.8648C24.0404 15.4453 24.8994 15.473 24.9067 14.8853C24.9781 11.5763 22.9379 8.85068 19.104 8.56339C18.5425 8.52255 18.4842 9.40484 19.0442 9.44568C22.3692 9.69797 24.1206 11.9671 24.0535 14.8648Z" fill="#19141B"/>
<path d="M23.1364 18.6288C22.4159 18.2117 21.6824 18.4713 21.3791 18.8811L20.7447 19.7022C20.4224 20.1192 19.8201 20.0638 19.8201 20.0638C15.4247 18.9015 14.2493 14.3019 14.2493 14.3019C14.2493 14.3019 14.1953 13.6792 14.5978 13.3453L15.3912 12.689C15.7878 12.374 16.0387 11.6157 15.6347 10.8705C14.5555 8.92069 13.8307 8.2484 13.4618 7.73215C13.0739 7.24653 12.4905 7.13715 11.8839 7.46528H11.8707C10.6093 8.20319 9.22824 9.58424 9.67011 11.0061C10.4241 12.5053 11.8095 17.2842 16.2253 20.8951C18.3005 22.6028 21.5847 24.3528 22.9789 24.7567L22.992 24.7772C24.3657 25.2351 25.7016 23.8001 26.4147 22.5007V22.4905C26.7311 21.8619 26.6262 21.2669 26.1639 20.8776C25.3443 20.0784 24.1076 19.1961 23.1364 18.6288Z" fill="#19141B"/>
<path d="M19.7055 11.8183C21.1069 11.9 21.7865 12.632 21.8594 14.1356C21.8857 14.7233 22.7388 14.6825 22.7125 14.0947C22.6192 12.1318 21.5955 11.0381 19.7521 10.936C19.1907 10.9024 19.1382 11.7847 19.7055 11.8183Z" fill="#19141B"/>
</g>
<defs>
<clipPath id="clip0_2115_7555">
<rect width="35" height="35" fill="white" transform="translate(0.5)"/>
</clipPath>
</defs>
</svg>
