<svg width="34" height="35" viewBox="0 0 34 35" fill="none" xmlns="http://www.w3.org/2000/svg">
<path fill-rule="evenodd" clip-rule="evenodd" d="M29.0463 5.08636C25.8501 1.80811 21.5995 0.0019226 17.0711 0C7.73995 0 0.145754 7.77994 0.142 17.3421C0.140749 20.3989 0.920187 23.3828 2.4017 26.0129L0 35L8.97438 32.5882C11.4472 33.9701 14.2311 34.6984 17.0642 34.6992H17.0713C26.4014 34.6992 33.9965 26.9186 34 17.356C34.0019 12.7217 32.2426 8.36441 29.0463 5.08636ZM17.0711 31.7702H17.0653C14.5405 31.7692 12.0644 31.074 9.90374 29.7609L9.39016 29.4484L4.06463 30.8796L5.48609 25.5602L5.15142 25.0148C3.74289 22.7197 2.9991 20.0669 3.00036 17.3432C3.00327 9.39536 9.31551 2.9292 17.0767 2.9292C20.8351 2.93048 24.368 4.43182 27.0245 7.15659C29.681 9.88135 31.1431 13.5031 31.1419 17.3549C31.1385 25.3034 24.8267 31.7702 17.0711 31.7702ZM24.7892 20.9739C24.3663 20.7569 22.2865 19.7089 21.8987 19.564C21.5113 19.4194 21.2289 19.3474 20.9472 19.7811C20.6651 20.2147 19.8546 21.191 19.6077 21.48C19.3608 21.7693 19.1144 21.8056 18.6913 21.5885C18.2682 21.3717 16.9053 20.9139 15.2895 19.4376C14.0322 18.2885 13.1833 16.8694 12.9364 16.4357C12.6899 16.0016 12.9343 15.7897 13.122 15.5513C13.5799 14.9688 14.0384 14.358 14.1794 14.069C14.3206 13.7798 14.2499 13.5266 14.1439 13.3098C14.0384 13.093 13.1925 10.9599 12.8401 10.092C12.4964 9.24731 12.148 9.36139 11.8882 9.34814C11.6417 9.33554 11.3596 9.33298 11.0775 9.33298C10.7956 9.33298 10.3372 9.44128 9.9494 9.87537C9.56177 10.3092 8.46914 11.3575 8.46914 13.4905C8.46914 15.6235 9.98485 17.6841 10.1963 17.9734C10.4077 18.2626 13.1791 22.6398 17.4222 24.5167C18.4315 24.9636 19.2192 25.2299 19.8337 25.4297C20.8471 25.7595 21.769 25.713 22.498 25.6014C23.3108 25.4769 25.0004 24.553 25.3532 23.5408C25.7056 22.5285 25.7056 21.6609 25.5997 21.48C25.4942 21.2993 25.212 21.191 24.7892 20.9739Z" fill="#19141B"/>
</svg>
