<svg width="169" height="40" viewBox="0 0 169 40" fill="none" xmlns="http://www.w3.org/2000/svg">
<path d="M0 11.4609H4.69284C6.56439 11.4609 7.96107 11.7979 8.91081 12.4437C9.86055 13.1176 10.3354 14.2689 10.3354 15.9536C10.3354 17.1049 10.1958 18.0034 9.88848 18.6773C9.58121 19.3512 9.05048 19.8847 8.2404 20.2497L10.5589 28.5331H6.70406L4.83251 20.8675H3.77103V28.5331H0V11.4609ZM4.80457 18.7054C5.55878 18.7054 6.08952 18.5088 6.39679 18.1157C6.70406 17.7226 6.84372 17.1049 6.84372 16.3186C6.84372 15.5324 6.70406 14.9708 6.42472 14.5777C6.14539 14.1846 5.67051 13.9881 4.97218 13.9881H3.7431V18.7054H4.80457Z" fill="#19141B"/>
<path d="M12.5977 11.4609H20.2515V14.0442H16.3408V18.2842H19.3017V20.8955H16.3408V26.006H20.2794V28.5612H12.5977V11.4609Z" fill="#19141B"/>
<path d="M165.851 -3.34589e-05L71.0938 10.0088L74.2288 40L168.986 29.9912L165.851 -3.34589e-05Z" fill="#828282"/>
<path opacity="0.2" d="M167.134 3.25627L71.9102 6.59888L72.9572 36.7378L168.181 33.3952L167.134 3.25627Z" fill="#303030"/>
<path d="M167.63 4.8855H72.3633V35.1145H167.63V4.8855Z" fill="#333333"/>
<path d="M22.2057 11.4609H26.2281L28.0997 21.401L30.1109 11.4609H33.9937L34.3009 28.5612H31.6473L31.34 17.1891L29.3567 28.5612H26.9823L24.8594 17.0768L24.608 28.5331H21.8984L22.2057 11.4609Z" fill="#19141B"/>
<path d="M37.7084 27.3819C36.9262 26.4272 36.5352 25.0232 36.5352 23.17V16.8241C36.5352 14.9709 36.9262 13.5669 37.7084 12.6403C38.4905 11.7137 39.8034 11.2363 41.647 11.2363C43.4906 11.2363 44.8035 11.7137 45.6136 12.6403C46.3957 13.595 46.7868 14.9709 46.7868 16.8241V23.17C46.7868 25.0232 46.3957 26.4272 45.6136 27.3819C44.8314 28.3366 43.4906 28.8139 41.647 28.8139C39.8034 28.8139 38.4905 28.3366 37.7084 27.3819ZM42.6805 25.5848C42.8481 25.2198 42.9319 24.7424 42.9319 24.1247V15.8975C42.9319 15.2517 42.8481 14.7743 42.6805 14.4093C42.5129 14.0442 42.1498 13.8758 41.6191 13.8758C41.1163 13.8758 40.7811 14.0442 40.6135 14.4093C40.4458 14.7743 40.3621 15.2517 40.3621 15.8694V24.0966C40.3621 24.7143 40.4459 25.1917 40.5855 25.5567C40.7531 25.9217 41.0883 26.0902 41.6191 26.0902C42.1498 26.1183 42.5129 25.9498 42.6805 25.5848Z" fill="#19141B"/>
<path d="M50.4175 14.2689H47.8477V11.4609H56.7305V14.2689H54.1886V28.5612H50.4175V14.2689Z" fill="#19141B"/>
<path d="M65.9222 26.006V28.5612H58.3242V11.4609H65.8663V14.0161H61.9835V18.2842H64.9445V20.8955H61.9835V26.006H65.9222Z" fill="#19141B"/>
<path d="M82.9062 11.4609H86.6773V18.3684H89.303V11.4609H93.0741V28.5612H89.303V21.064H86.6773V28.5331H82.9062V11.4609Z" fill="#FCF8F3"/>
<path d="M95.6445 11.4609H103.298V14.0442H99.4156V18.2842H102.377V20.8955H99.4156V26.006H103.354V28.5612H95.6725V11.4609H95.6445Z" fill="#FCF8F3"/>
<path d="M105.027 11.4609H108.798V26.006H112.709V28.5612H105.027V11.4609Z" fill="#FCF8F3"/>
<path d="M114.329 11.4609H120.027C121.536 11.4609 122.653 11.8821 123.379 12.7245C124.133 13.5669 124.497 14.8024 124.497 16.4029C124.497 18.228 124.078 19.4916 123.212 20.2216C122.346 20.9236 121.145 21.2887 119.58 21.2887H118.072V28.5612H114.301V11.4609H114.329ZM119.357 18.6492C120.027 18.6492 120.446 18.4807 120.67 18.1157C120.893 17.7507 121.005 17.161 121.005 16.3467C121.005 15.5886 120.893 15.027 120.698 14.662C120.474 14.2969 120.027 14.1004 119.357 14.1004H118.128V18.6492H119.357Z" fill="#FCF8F3"/>
<path d="M126.312 11.4609H133.966V14.0442H130.084V18.2842H133.045V20.8955H130.084V26.006H134.022V28.5612H126.34V11.4609H126.312Z" fill="#FCF8F3"/>
<path d="M135.7 11.4609H140.393C142.264 11.4609 143.661 11.7979 144.611 12.4437C145.56 13.1176 146.035 14.2689 146.035 15.9536C146.035 17.1049 145.896 18.0034 145.588 18.6773C145.281 19.3512 144.75 19.8847 143.94 20.2497L146.259 28.5331H142.376L140.504 20.8675H139.443V28.5331H135.672V11.4609H135.7ZM140.504 18.7054C141.259 18.7054 141.789 18.5088 142.097 18.1157C142.404 17.7226 142.544 17.1049 142.544 16.3186C142.544 15.5324 142.404 14.9708 142.125 14.5777C141.845 14.1846 141.37 13.9881 140.672 13.9881H139.443V18.7054H140.504Z" fill="#FCF8F3"/>
<path d="M149.109 27.4942C148.326 26.6237 147.907 25.2478 147.852 23.3665L151.064 22.8892C151.064 23.9843 151.204 24.7424 151.455 25.2198C151.706 25.6971 152.07 25.9217 152.544 25.9217C153.187 25.9217 153.494 25.5006 153.494 24.6863C153.494 24.0124 153.354 23.4508 153.047 22.9734C152.74 22.4961 152.265 21.9907 151.623 21.4291L150.142 20.1374C149.416 19.5197 148.857 18.8739 148.466 18.1719C148.075 17.4699 147.88 16.6556 147.88 15.7009C147.88 14.2689 148.299 13.1738 149.137 12.3876C149.975 11.6014 151.148 11.2363 152.628 11.2363C154.248 11.2363 155.338 11.7137 155.924 12.6403C156.511 13.595 156.818 14.7181 156.846 16.0659L153.606 16.4591C153.578 15.5605 153.494 14.9428 153.354 14.5497C153.215 14.1566 152.935 13.96 152.489 13.96C152.153 13.96 151.93 14.1004 151.734 14.3812C151.567 14.662 151.483 14.9709 151.483 15.3078C151.483 15.8975 151.623 16.3748 151.874 16.7679C152.125 17.161 152.544 17.6103 153.131 18.1157L154.528 19.3512C155.366 20.0813 156.008 20.8394 156.483 21.6256C156.958 22.4399 157.181 23.3665 157.181 24.4616C157.181 25.2759 156.986 25.9779 156.623 26.6518C156.26 27.2976 155.729 27.8311 155.058 28.1962C154.388 28.5893 153.606 28.7577 152.74 28.7577C151.092 28.8139 149.891 28.3646 149.109 27.4942Z" fill="#FCF8F3"/>
</svg>
