<svg width="84" height="82" viewBox="0 0 84 82" fill="none" xmlns="http://www.w3.org/2000/svg">
<path fill-rule="evenodd" clip-rule="evenodd" d="M6.69668 43.8865L13.3934 68.8789L26.3804 65.399L39.3676 61.9191L40.475 67.1232L41.5824 72.3273L33.9713 74.6413C26.4114 76.9396 26.3666 76.9688 27.3687 79.0413L28.3782 81.1271L53.267 74.4581L78.1549 67.7894L77.557 65.558C76.966 63.3524 76.8698 63.3504 69.3721 65.3594L61.7851 67.3923L60.3501 62.0368L58.9151 56.6813L71.4113 53.333L83.9075 49.9847L77.2108 24.9923L70.5141 -3.587e-05L35.2571 9.44706L0 18.8942L6.69668 43.8865ZM72.7479 26.1881L78.2487 46.7176L47.9009 54.8493L17.553 62.9809L12.0522 42.4515L6.55134 21.9221L36.8992 13.7904L67.247 5.65872L72.7479 26.1881ZM55.6489 63.0574L56.7563 68.2615L51.6957 69.9044L46.6351 71.5474L45.1882 66.1473L43.7412 60.7472L49.1413 59.3002L54.5415 57.8533L55.6489 63.0574Z" fill="black"/>
<path d="M72.7479 26.1881L78.2487 46.7176L47.9009 54.8493L17.553 62.9809L12.0522 42.4515L6.55134 21.9221L36.8992 13.7904L67.247 5.65872L72.7479 26.1881Z" fill="#A760DE"/>
</svg>
