<svg width="55" height="66" viewBox="0 0 55 66" fill="none" xmlns="http://www.w3.org/2000/svg">
<path fill-rule="evenodd" clip-rule="evenodd" d="M14.1164 2.61133C13.9839 4.06458 14.3141 4.461 15.7674 4.59347C17.5629 4.75712 17.5773 4.83171 17.021 10.9353L16.458 17.1116L12.4616 16.7474L8.46514 16.3831L8.82942 12.3867C9.17382 8.60822 9.29251 8.39924 11.0102 8.55581C12.5441 8.69563 12.8577 8.38206 13.0255 6.54152C13.1933 4.70099 12.9415 4.33589 11.4076 4.19608C9.87373 4.05626 9.56015 4.36983 9.39238 6.21037C9.21574 8.14827 8.95172 8.36818 7.01382 8.19154L4.83395 7.99285L2.41651 34.5146L-0.000938971 61.0363L24.7042 63.2881L49.4094 65.54L52.1911 35.0219L54.9728 4.50374L34.6274 2.64926L14.282 0.794777L14.1164 2.61133ZM48.558 34.6907L46.1074 61.5757L25.3987 59.6881L4.68995 57.8006L6.3762 39.3008L8.06239 20.8017L14.0763 21.1366L20.0901 21.4723L21.0409 13.3166L21.9916 5.16081L36.5001 6.48325L51.0086 7.80569L48.558 34.6907Z" fill="black"/>
<path d="M48.558 34.6907L46.1074 61.5757L25.3987 59.6881L4.68995 57.8006L6.3762 39.3008L8.06239 20.8017L14.0763 21.1366L20.0901 21.4723L21.0409 13.3166L21.9916 5.16081L36.5001 6.48325L51.0086 7.80569L48.558 34.6907Z" fill="#FEFEFE"/>
</svg>
