<svg width="71" height="93" viewBox="0 0 71 93" fill="none" xmlns="http://www.w3.org/2000/svg">
<path d="M49.7253 39.439L48.3976 35.8787L44.9829 37.3855L43.6792 33.8188L40.2644 35.3256L38.9368 31.7654L35.5459 33.2657L34.2183 29.7055L30.7981 31.1873L29.4998 27.6456L26.0796 29.1274L24.7574 25.5921L21.3372 27.0739L20.0335 23.5072L16.6187 25.014L15.315 21.4473L11.9002 22.9541L10.5726 19.3939L7.18176 20.8942L25.6036 70.6764L29.0238 69.1946L27.6961 65.6344L31.1109 64.1276L29.7832 60.5673L33.2034 59.0855L31.8758 55.5253L35.296 54.0435L37.9458 61.1389L41.3366 59.6386L43.968 66.7656L47.3828 65.2588L50.038 72.3792L53.4289 70.8789L56.0842 77.9994L62.8898 74.9922L60.2638 67.8903L56.8436 69.3721L54.2177 62.2701L50.803 63.7769L48.1716 56.65L44.7568 58.1568L40.8032 47.4946L54.4438 41.4988L53.1161 37.9386L49.7253 39.439Z" fill="#FCF5F7"/>
<path d="M24.6409 66.9025L7.27797 20.4417L10.7175 18.9335L9.3951 15.3478L5.93134 16.8626L4.58472 13.2834L1.12096 14.7982L25.1873 79.136L28.6323 77.6529L27.3099 74.0673L30.7737 72.5525L29.4326 68.9985L25.9633 70.4881L24.6409 66.9025Z" fill="#222222"/>
<path d="M29.3423 69.2074L32.7405 67.7064L31.4193 64.1601L28.021 65.661L29.3423 69.2074Z" fill="#222222"/>
<path d="M35.4565 54.0926L32.0508 55.5696L33.3728 59.1181L29.9671 60.595L31.2891 64.1436L38.0952 61.1647L35.4565 54.0926Z" fill="#222222"/>
<path d="M41.4707 59.819L38.0764 61.3202L40.7051 68.4265L44.1049 66.9503L41.4707 59.819Z" fill="#222222"/>
<path d="M47.5137 65.5693L44.0959 67.0769L46.7481 74.1762L50.1713 72.6936L47.5137 65.5693Z" fill="#222222"/>
<path d="M53.5526 71.3173L50.1584 72.8185L52.7869 79.9246L56.2104 78.4419L53.5526 71.3173Z" fill="#222222"/>
<path d="M57.576 40.3074L56.2633 36.7963L52.8677 38.268L54.1858 41.8039L40.6434 47.7588L44.5686 58.3483L47.9588 56.8517L45.3517 49.7982L62.2605 42.3532L60.9716 38.8357L57.576 40.3074Z" fill="#222222"/>
<path d="M50.7378 64.1023L54.1559 62.5946L51.5219 55.4634L48.1038 56.9711L50.7378 64.1023Z" fill="#222222"/>
<path d="M56.7752 69.8275L60.1987 68.3449L57.5647 61.2138L54.1467 62.7214L56.7752 69.8275Z" fill="#222222"/>
<path d="M62.8182 75.5775L66.2416 74.0949L63.5838 66.9702L60.1897 68.4715L62.8182 75.5775Z" fill="#222222"/>
<path d="M56.1895 78.5761L57.476 82.0827L64.2491 79.1238L62.9335 75.5988L56.1895 78.5761Z" fill="#222222"/>
<path d="M15.2288 20.927L13.9076 17.3806L10.5093 18.8816L11.8305 22.428L15.2288 20.927Z" fill="#222222"/>
<path d="M19.9106 23.0764L18.5948 19.5549L15.2149 21.0245L16.5123 24.5773L19.9106 23.0764Z" fill="#222222"/>
<path d="M24.5996 25.2489L23.3021 21.6961L19.8985 23.1721L21.1959 26.7249L24.5996 25.2489Z" fill="#222222"/>
<path d="M29.3066 27.3894L27.9855 23.8433L24.5874 25.3442L25.9032 28.8654L29.3066 27.3894Z" fill="#222222"/>
<path d="M33.9902 29.54L32.669 25.9936L29.2945 27.4882L30.5865 31.016L33.9902 29.54Z" fill="#222222"/>
<path d="M38.6741 31.6873L37.3766 28.1342L33.9781 29.6353L35.2994 33.1818L38.6741 31.6873Z" fill="#222222"/>
<path d="M43.3812 33.8286L42.06 30.2823L38.6617 31.7832L39.9829 35.3295L43.3812 33.8286Z" fill="#222222"/>
<path d="M48.0647 35.9757L46.7434 32.4292L43.3687 33.9237L44.6662 37.4767L48.0647 35.9757Z" fill="#222222"/>
<path d="M52.7483 38.1257L51.4508 34.5727L48.0523 36.0738L49.3736 39.6203L52.7483 38.1257Z" fill="#222222"/>
</svg>
